<svg width="96" height="96" viewBox="0 0 96 96" fill="none" xmlns="http://www.w3.org/2000/svg">
<path d="M48.648 26.249V7.289C26.188 7.289 8 25.478 8 47.937C8 70.397 26.189 88.587 48.648 88.587V69.627C36.66 69.627 26.96 59.926 26.96 47.937C26.96 35.95 36.66 26.249 48.648 26.249Z" fill="white"/>
<path d="M70.416 26.249C69.1711 26.249 67.9383 26.0038 66.7882 25.5274C65.638 25.051 64.5929 24.3527 63.7126 23.4724C62.8323 22.5921 62.134 21.547 61.6576 20.3968C61.1812 19.2467 60.936 18.0139 60.936 16.769C60.936 15.5241 61.1812 14.2913 61.6576 13.1412C62.134 11.991 62.8323 10.9459 63.7126 10.0656C64.5929 9.18533 65.638 8.48704 66.7882 8.01062C67.9383 7.53421 69.1711 7.289 70.416 7.289C72.9303 7.289 75.3415 8.28778 77.1194 10.0656C78.8972 11.8435 79.896 14.2547 79.896 16.769C79.896 19.2833 78.8972 21.6945 77.1194 23.4724C75.3415 25.2502 72.9303 26.249 70.416 26.249Z" fill="#00D8D5"/>
<path d="M70.257 88.586C67.7428 88.586 65.3315 87.5872 63.5536 85.8093C61.7758 84.0315 60.777 81.6202 60.777 79.106C60.777 76.5917 61.7758 74.1804 63.5536 72.4026C65.3315 70.6248 67.7428 69.626 70.257 69.626C72.7713 69.626 75.1825 70.6248 76.9604 72.4026C78.7382 74.1804 79.737 76.5917 79.737 79.106C79.737 81.6202 78.7382 84.0315 76.9604 85.8093C75.1825 87.5872 72.7713 88.586 70.257 88.586Z" fill="#FF4C8B"/>
<path d="M70.337 47.937C70.337 59.926 60.637 69.627 48.648 69.627V26.248C60.636 26.248 70.337 35.948 70.337 47.936" fill="white"/>
</svg>
